# xmcd CD database file
#
# Track frame offsets:
#	150
#	26595
#	60086
#	85233
#	115988
#	148447
#	182931
#	209196
#	242382
#
# Disc length: 3634 seconds
#
# Revision: 0
# Processed by: cddbd v1.5.2PL0 Copyright (c) Steve Scherf et al.
# Submitted via: CDex 1.51
#
DISCID=810e3009
DTITLE=Antonio Ciacca Quintet - Rush Life
DYEAR=2008
DGENRE=Jazz
TTITLE0=Squazin
TTITLE1=Chipewha
TTITLE2=I Remember Clifford
TTITLE3=Flat 5 Flat 9
TTITLE4=On Green Dolphin Street
TTITLE5=Rush Life
TTITLE6=Riverdale
TTITLE7=Prince Of Newark
TTITLE8=Without A Song
EXTD=YEAR: 2008
EXTT0=
EXTT1=
EXTT2=
EXTT3=
EXTT4=
EXTT5=
EXTT6=
EXTT7=
EXTT8=
PLAYORDER=
